HIERARCHY
ROOT Pelvis
{
	OFFSET 0.000000 0.941512 0.000000
	CHANNELS 6 Xposition Yposition Zposition Zrotation Yrotation Xrotation 
	JOINT Pelvis_L_Hip
	{
		OFFSET 0.000000 0.000000 0.000000
		CHANNELS 3 Zrotation Yrotation Xrotation
		JOINT L_Hip
		{
			OFFSET 0.062321 -0.080322 -0.016990
			CHANNELS 3 Zrotation Yrotation Xrotation
			JOINT L_Knee
			{
				OFFSET 0.093051 -0.381305 -0.029784
				CHANNELS 3 Zrotation Yrotation Xrotation
				JOINT L_Ankle
				{
					OFFSET -0.010371 -0.431000 -0.033614
					CHANNELS 3 Zrotation Yrotation Xrotation
					End Site #name: L_Foot
					{
						OFFSET 0.069299 -0.038670 0.119418
					}
				}
			}
		}
	}
	JOINT Pelvis_R_Hip
	{
		OFFSET 0.000000 0.000000 0.000000
		CHANNELS 3 Zrotation Yrotation Xrotation
		JOINT R_Hip
		{
			OFFSET -0.055334 -0.094904 -0.002373
			CHANNELS 3 Zrotation Yrotation Xrotation
			JOINT R_Knee
			{
				OFFSET -0.064207 -0.384370 -0.019592
				CHANNELS 3 Zrotation Yrotation Xrotation
				JOINT R_Ankle
				{
					OFFSET 0.025418 -0.419734 -0.065953
					CHANNELS 3 Zrotation Yrotation Xrotation
					End Site #name: R_Foot
					{
						OFFSET -0.057233 -0.039888 0.132134
					}
				}
			}
		}
	}
	JOINT Pelvis_Spine1
	{
		OFFSET 0.000000 0.000000 0.000000
		CHANNELS 3 Zrotation Yrotation Xrotation
		JOINT Spine1
		{
			OFFSET -0.005562 0.124093 -0.043360
			CHANNELS 3 Zrotation Yrotation Xrotation
			JOINT Spine2
			{
				OFFSET 0.012244 0.139499 0.029894
				CHANNELS 3 Zrotation Yrotation Xrotation
				JOINT Spine3
				{
					OFFSET -0.002556 0.056561 0.009225
					CHANNELS 3 Zrotation Yrotation Xrotation
					JOINT Spine3_Neck
					{
						OFFSET 0.000000 0.000000 0.000000
						CHANNELS 3 Zrotation Yrotation Xrotation
						JOINT Neck
						{
							OFFSET -0.005205 0.217920 -0.024551
							CHANNELS 3 Zrotation Yrotation Xrotation
							End Site #name: Head
							{
								OFFSET 0.002365 0.091850 0.046637
							}
						}
					}
					JOINT Spine3_L_Collar
					{
						OFFSET 0.000000 0.000000 0.000000
						CHANNELS 3 Zrotation Yrotation Xrotation
						JOINT L_Collar
						{
							OFFSET 0.072225 0.116603 -0.009480
							CHANNELS 3 Zrotation Yrotation Xrotation
							JOINT L_Shoulder
							{
								OFFSET 0.115937 -0.058643 -0.021018
								CHANNELS 3 Zrotation Yrotation Xrotation
								JOINT L_Elbow
								{
									OFFSET 0.021994 -0.254722 -0.024492
									CHANNELS 3 Zrotation Yrotation Xrotation
									End Site #name: L_Wrist
									{
										OFFSET 0.048810 -0.240214 0.103329
									}
								}
							}
						}
					}
					JOINT Spine3_R_Collar
					{
						OFFSET 0.000000 0.000000 0.000000
						CHANNELS 3 Zrotation Yrotation Xrotation
						JOINT R_Collar
						{
							OFFSET -0.073372 0.120704 -0.024611
							CHANNELS 3 Zrotation Yrotation Xrotation
							JOINT R_Shoulder
							{
								OFFSET -0.108089 -0.054969 -0.020504
								CHANNELS 3 Zrotation Yrotation Xrotation
								JOINT R_Elbow
								{
									OFFSET -0.033684 -0.260739 0.009889
									CHANNELS 3 Zrotation Yrotation Xrotation
									End Site #name: R_Wrist
									{
										OFFSET -0.067980 -0.232763 0.118463
									}
								}
							}
						}
					}
				}
			}
		}
	}
}
MOTION
Frames: 15
Frame Time: 0.041667
-0.083871 0.919770 0.938403 -2.407333 -18.657791 -0.901504 0.000000 0.000000 0.000000 -0.248487 -5.971582 -28.190848 10.298689 -1.775434 8.911743 -8.403062 -20.188111 3.805385 0.000000 0.000000 0.000000 12.659143 -3.464037 11.398536 -9.835928 3.146189 9.394354 -4.489905 18.226391 -15.421638 0.000000 0.000000 0.000000 9.103498 -1.368684 -3.461453 0.085379 5.126144 44.392896 -5.982777 -5.334405 -39.925684 0.000000 0.000000 0.000000 7.720056 -4.953487 24.879098 0.000000 0.000000 0.000000 15.312576 -3.000273 -0.336962 -4.717366 1.880222 12.542767 -2.153449 -0.584211 1.445461 0.000000 0.000000 0.000000 -11.059397 -8.576257 8.419919 7.929670 -0.309698 5.233069 4.198409 4.998317 -7.565956 
-0.096116 0.908773 1.000009 -2.506974 -20.716091 -0.254162 0.000000 0.000000 0.000000 0.064195 -5.971295 -29.334380 10.072615 -1.886760 10.829328 -8.200014 -18.643871 4.302507 0.000000 0.000000 0.000000 11.535715 -3.754125 13.607245 -9.486102 3.546752 11.808433 -4.795219 17.775990 -15.606553 0.000000 0.000000 0.000000 8.577738 -1.058965 -5.034990 1.565096 4.755138 45.293795 -7.007555 -6.508896 -40.009554 0.000000 0.000000 0.000000 8.684271 -5.429111 24.890921 0.000000 0.000000 0.000000 15.475554 -3.297110 -0.667262 -4.374141 1.937649 13.437787 -2.248787 -0.625977 1.438223 0.000000 0.000000 0.000000 -10.045372 -9.612642 8.843746 7.381203 -0.340570 5.288030 4.231407 4.290897 -5.686637 
-0.107729 0.903526 1.064680 -1.825251 -21.460787 0.335922 0.000000 0.000000 0.000000 -1.230321 -6.502029 -31.286972 9.451575 -2.237128 18.609827 -9.643235 -17.281217 7.348736 0.000000 0.000000 0.000000 9.768378 -3.529887 13.948901 -8.395270 4.368326 17.252001 -3.340965 16.770738 -12.927857 0.000000 0.000000 0.000000 6.842813 -0.568914 -6.783247 3.560322 3.760363 45.666960 -8.105890 -8.298465 -39.485277 0.000000 0.000000 0.000000 10.496023 -6.463081 24.539973 0.000000 0.000000 0.000000 15.816831 -4.777049 -1.810296 -4.251098 2.003865 14.109385 -2.240220 -0.477581 2.057064 0.000000 0.000000 0.000000 -9.120976 -11.474808 9.821798 7.389324 -0.339714 5.318973 3.204534 2.957977 -3.717342 
-0.119718 0.908256 1.129699 -0.580266 -20.691750 -0.239542 0.000000 0.000000 0.000000 -4.037380 -6.964509 -30.246792 9.182355 -2.406756 24.263519 -10.144360 -17.434333 8.002994 0.000000 0.000000 0.000000 7.549932 -2.894870 12.381281 -4.292141 4.958934 27.275835 0.336540 11.647083 -5.146690 0.000000 0.000000 0.000000 4.913813 -0.260450 -7.006507 5.313976 2.487009 45.115753 -9.455687 -10.683468 -38.492672 0.000000 0.000000 0.000000 12.968131 -7.923773 23.917446 0.000000 0.000000 0.000000 16.857056 -7.478295 -3.791830 -4.391034 2.048169 14.231694 -2.313713 -0.337400 2.788581 0.000000 0.000000 0.000000 -8.860770 -13.810550 11.355455 8.536945 -0.335476 5.619537 1.610508 1.448430 -1.907445 
-0.135018 0.919795 1.188549 0.411776 -20.237699 -0.971015 0.000000 0.000000 0.000000 -6.406207 -6.444421 -25.571054 9.305765 -2.433009 24.333457 -8.473342 -18.129981 4.981909 0.000000 0.000000 0.000000 5.025217 -1.653132 7.306069 2.793474 4.083433 39.851852 3.207629 1.135799 5.380005 0.000000 0.000000 0.000000 3.036082 -0.014833 -6.675272 7.403368 1.151376 44.917009 -10.798353 -12.898676 -38.011868 0.000000 0.000000 0.000000 15.175886 -9.221735 23.746491 0.000000 0.000000 0.000000 18.755278 -10.180604 -5.865314 -5.018076 2.029322 13.242892 -2.639776 -0.429221 2.955758 0.000000 0.000000 0.000000 -9.364123 -15.651573 12.915736 9.743803 -0.356156 6.024893 0.973409 0.715435 -0.695500 
-0.153270 0.932905 1.239263 -0.063455 -21.198555 -1.261682 0.000000 0.000000 0.000000 -6.621876 -5.006451 -19.436121 9.654443 -2.359786 21.352715 -6.932405 -18.383567 2.383623 0.000000 0.000000 0.000000 4.051301 -0.202868 -0.239003 9.503952 2.042915 49.851580 1.181802 -9.138082 9.403286 0.000000 0.000000 0.000000 2.899549 -0.103211 -5.637820 9.634954 -0.043609 44.384046 -12.293309 -14.530256 -37.729838 0.000000 0.000000 0.000000 16.364722 -9.894985 24.240192 0.000000 0.000000 0.000000 19.527304 -12.052347 -7.409227 -4.163950 1.666879 11.474339 -3.209220 -0.809221 2.334015 0.000000 0.000000 0.000000 -9.519286 -16.404755 13.608591 9.761885 -0.462265 6.536412 1.057906 0.613281 -0.241585 
-0.173889 0.944495 1.283679 -1.465069 -22.857114 -1.376037 0.000000 0.000000 0.000000 -5.162445 -3.305140 -13.057079 9.577573 -2.134161 17.647704 -6.009927 -18.089287 1.003026 0.000000 0.000000 0.000000 4.427979 1.410409 -8.109892 14.457925 -0.250527 53.782657 -1.654281 -14.601723 8.341005 0.000000 0.000000 0.000000 3.753496 -0.436335 -3.794155 11.266216 -0.813382 43.226741 -13.208153 -15.424693 -37.260307 0.000000 0.000000 0.000000 16.784763 -10.032255 24.619237 0.000000 0.000000 0.000000 19.996827 -13.542171 -8.688639 -2.691531 1.184870 9.153750 -3.405046 -1.180644 1.158910 0.000000 0.000000 0.000000 -9.500414 -16.511224 13.789120 9.713348 -0.516500 6.798683 0.776550 0.412658 -0.062314 
-0.195711 0.952642 1.325780 -3.079473 -24.216396 -1.708024 0.000000 0.000000 0.000000 -3.350320 -1.524290 -6.238013 9.458760 -1.888714 13.426985 -5.320415 -18.012044 -0.148938 0.000000 0.000000 0.000000 4.599627 2.907271 -14.271409 17.646631 -2.162460 50.530197 -3.348881 -16.375720 5.856331 0.000000 0.000000 0.000000 5.037285 -0.881556 -1.666935 12.358796 -1.327730 41.950613 -13.722575 -16.184631 -36.695530 0.000000 0.000000 0.000000 17.273482 -10.206958 24.921653 0.000000 0.000000 0.000000 20.515882 -15.199292 -10.121861 -1.037459 0.751629 6.996240 -3.247829 -1.400903 0.008330 0.000000 0.000000 0.000000 -9.601995 -16.726359 14.104898 9.753302 -0.500862 6.749540 0.369406 0.201913 -0.048935 
-0.218484 0.954826 1.367195 -4.274706 -25.197828 -2.015403 0.000000 0.000000 0.000000 -1.803607 0.160265 0.220658 9.355995 -1.625717 9.323111 -4.637977 -18.338146 -1.516771 0.000000 0.000000 0.000000 3.689263 3.994204 -18.678238 18.543720 -2.836499 41.638106 -5.114508 -18.871527 3.880201 0.000000 0.000000 0.000000 6.245943 -1.258132 -0.202976 13.375167 -1.806810 40.924851 -14.347394 -17.157992 -36.141704 0.000000 0.000000 0.000000 18.025021 -10.551786 25.189669 0.000000 0.000000 0.000000 21.063326 -16.872959 -11.604111 0.683680 0.393174 5.158539 -3.055459 -1.502741 -0.733901 0.000000 0.000000 0.000000 -9.914697 -17.264795 14.754985 9.717899 -0.461640 6.561948 0.232283 0.157095 -0.128112 
-0.243589 0.950365 1.408459 -4.704229 -26.030336 -2.107117 0.000000 0.000000 0.000000 -0.856772 1.609714 5.558144 9.339144 -1.404795 6.266712 -3.902048 -18.787792 -3.045021 0.000000 0.000000 0.000000 2.260439 4.651281 -21.720507 15.496801 -1.896452 29.581637 -6.298390 -21.385130 3.670343 0.000000 0.000000 0.000000 6.882803 -1.397181 0.001663 14.605586 -2.320624 40.499507 -15.275184 -18.311099 -35.615231 0.000000 0.000000 0.000000 18.899378 -11.003056 25.630177 0.000000 0.000000 0.000000 21.657048 -18.362234 -12.984149 2.320474 0.098342 3.414844 -2.988498 -1.551095 -1.044258 0.000000 0.000000 0.000000 -10.202291 -18.059161 15.574712 9.677054 -0.448540 6.488206 0.088907 0.113219 -0.221129 
-0.273024 0.940576 1.450062 -4.401587 -26.735867 -2.189588 0.000000 0.000000 0.000000 -0.532693 2.925513 9.972659 9.635749 -1.297365 4.523564 -2.965084 -19.184031 -4.903104 0.000000 0.000000 0.000000 1.098044 4.873732 -23.106252 8.497185 -0.470836 16.147739 -5.732261 -21.058765 4.796536 0.000000 0.000000 0.000000 6.729533 -1.230783 -1.186746 16.223226 -2.944869 40.915889 -16.511942 -19.598279 -35.043603 0.000000 0.000000 0.000000 19.692910 -11.478679 26.496321 0.000000 0.000000 0.000000 22.258251 -19.800423 -14.347241 3.791221 -0.124531 1.912742 -2.964377 -1.549281 -1.078913 0.000000 0.000000 0.000000 -10.481504 -18.989699 16.482852 9.572572 -0.578775 7.040043 0.143691 0.324353 -0.810633 
-0.307468 0.927272 1.492140 -3.480370 -27.015140 -2.448221 0.000000 0.000000 0.000000 -0.466604 4.204379 13.884358 10.139200 -1.268836 3.631476 -2.122386 -19.897684 -6.702730 0.000000 0.000000 0.000000 -0.000585 4.766108 -23.306032 0.308747 0.263098 3.920315 -4.620314 -20.027451 6.233767 0.000000 0.000000 0.000000 6.058671 -0.883708 -3.178180 17.816254 -3.593654 41.522611 -17.878592 -20.873146 -34.314802 0.000000 0.000000 0.000000 20.381130 -11.943853 27.466131 0.000000 0.000000 0.000000 22.739256 -20.968652 -15.480024 4.812728 -0.272393 0.608460 -2.819270 -1.455089 -0.961968 0.000000 0.000000 0.000000 -10.916185 -20.167905 17.645430 9.230818 -0.865074 8.245141 0.777633 0.963354 -1.779585 
-0.346658 0.913725 1.534075 -1.917211 -26.186865 -1.882399 0.000000 0.000000 0.000000 -0.713380 4.933266 15.870501 10.942177 -1.360895 3.774322 -1.860241 -21.163837 -7.631952 0.000000 0.000000 0.000000 -2.436257 4.673363 -24.543268 -4.998930 0.389996 -2.830690 -5.364398 -22.754178 7.688672 0.000000 0.000000 0.000000 5.344381 -0.433255 -6.111308 17.066907 -3.326635 40.715325 -16.939463 -20.552417 -33.533749 0.000000 0.000000 0.000000 20.334814 -12.595280 32.734668 0.000000 0.000000 0.000000 15.095269 -23.033971 -15.355223 12.758181 -1.049209 0.881242 -4.461761 -1.787132 0.571928 0.000000 0.000000 0.000000 -11.833562 -21.292137 19.055800 7.646533 -1.287629 9.965497 2.864326 1.853937 -1.138904 
-0.394911 0.905485 1.576367 -1.632754 -25.108342 -1.871407 0.000000 0.000000 0.000000 1.465745 5.003485 17.529877 11.417625 -1.702198 6.668819 -3.385521 -23.653795 -5.957440 0.000000 0.000000 0.000000 -3.943781 4.388771 -24.433744 -4.193261 0.349713 -2.264051 -7.843128 -28.367713 9.323994 0.000000 0.000000 0.000000 5.650516 -0.307072 -7.398942 17.323938 -3.613415 40.385541 -17.410126 -21.037134 -33.284614 0.000000 0.000000 0.000000 20.835708 -13.017787 32.761069 0.000000 0.000000 0.000000 13.556320 -23.155645 -15.075937 13.201803 -1.114543 0.754811 -4.263749 -1.812259 0.141274 0.000000 0.000000 0.000000 -11.826752 -22.207359 19.684876 7.292087 -1.636511 11.715146 2.296819 1.025675 0.429830 
-0.453180 0.904881 1.618082 -2.732221 -24.515884 -1.024302 0.000000 0.000000 0.000000 5.203523 4.120566 17.242488 11.806865 -2.283183 12.417360 -7.510461 -25.218945 0.044357 0.000000 0.000000 0.000000 -3.682566 4.402298 -24.420228 0.890939 0.045526 2.377843 -9.396170 -32.324143 12.242916 0.000000 0.000000 0.000000 6.782325 -0.158606 -9.433676 17.952396 -3.982978 41.182858 -17.759481 -21.232194 -33.727187 0.000000 0.000000 0.000000 20.931546 -13.250170 32.930532 0.000000 0.000000 0.000000 12.317962 -22.711541 -14.449861 12.037959 -1.037795 2.313907 -3.872199 -2.080468 -1.589390 0.000000 0.000000 0.000000 -12.033552 -22.203478 19.736037 7.821040 -1.912625 13.113532 0.831584 -0.791627 3.918890 
